Coordinates
version=1
nRows=49
nColumns=12
inDegrees=yes

Units are S.I. units (second, meters, Newtons, ...)
Angles are in degrees

endheader
time	SC_y	SC_z	SC_x	AC_y	AC_z	AC_x	GH_y	GH_z	GH_yy	EL_x	PS_y
       0.0              -40.84          19.78          57.51          49.72           6.01          2.172         -157.6         -11.26         -123.6          72.69          23.77
    0.0454              -40.84          19.78          57.51          49.72          6.011          2.172         -157.6         -11.25         -123.6          72.69          23.78
   0.09079              -40.84          19.78           57.5          49.73          6.011          2.171         -157.5         -11.25         -123.6           72.7           23.8
    0.1362              -40.84          19.78           57.5          49.73          6.011          2.171         -157.5         -11.24         -123.6          72.71          23.81
    0.1816              -40.84          19.78           57.5          49.73          6.011           2.17         -157.4         -11.23         -123.6          72.72          23.82
     0.227              -40.83          19.78           57.5          49.74          6.012           2.17         -157.3         -11.22         -123.6          72.73          23.84
    0.2724              -40.83          19.78          57.49          49.74          6.012          2.169         -157.3         -11.21         -123.6          72.74          23.86
    0.3178              -40.83          19.78          57.49          49.75          6.012          2.168         -157.2          -11.2         -123.6          72.75          23.87
    0.3632              -40.83          19.78          57.49          49.75          6.013          2.168         -157.2         -11.19         -123.6          72.76          23.89
    0.4086              -40.83          19.78          57.49          49.75          6.013          2.167         -157.1         -11.18         -123.5          72.78          23.91
     0.454              -40.83          19.78          57.48          49.76          6.013          2.166         -157.0         -11.17         -123.5          72.79          23.94
    0.4994              -40.82          19.78          57.48          49.77          6.014          2.165         -156.9         -11.15         -123.5          72.81          23.96
    0.5448              -40.82          19.78          57.48          49.77          6.014          2.164         -156.8         -11.14         -123.5          72.82          23.99
    0.5901              -40.82          19.78          57.47          49.78          6.015          2.163         -156.7         -11.12         -123.5          72.84          24.01
    0.6355              -40.82          19.78          57.47          49.78          6.015          2.162         -156.6          -11.1         -123.5          72.86          24.04
    0.6809              -40.81          19.79          57.46          49.79          6.016          2.161         -156.5         -11.08         -123.5          72.88          24.08
    0.7263              -40.81          19.79          57.46           49.8          6.016           2.16         -156.4         -11.06         -123.5           72.9          24.11
    0.7717              -40.81          19.79          57.45          49.81          6.017          2.158         -156.2         -11.04         -123.5          72.92          24.15
    0.8171               -40.8          19.79          57.44          49.82          6.018          2.157         -156.1         -11.02         -123.5          72.95          24.19
    0.8625               -40.8          19.79          57.44          49.83          6.019          2.155         -155.9         -10.99         -123.5          72.98          24.24
    0.9079              -40.79          19.79          57.43          49.84          6.019          2.153         -155.7         -10.96         -123.5          73.01          24.29
    0.9533              -40.79          19.79          57.42          49.86           6.02          2.151         -155.5         -10.93         -123.5          73.05          24.34
    0.9987              -40.78           19.8          57.41          49.87          6.021          2.149         -155.3         -10.89         -123.5          73.09           24.4
     1.044              -40.78           19.8           57.4          49.89          6.023          2.146         -155.0         -10.85         -123.5          73.13          24.47
      1.09              -40.77           19.8          57.39           49.9          6.024          2.144         -154.8         -10.81         -123.5          73.18          24.55
     1.135              -40.76           19.8          57.38          49.92          6.025          2.141         -154.4         -10.76         -123.5          73.23          24.63
      1.18              -40.75          19.81          57.36          49.95          6.027          2.137         -154.1         -10.71         -123.5          73.29          24.73
     1.226              -40.74          19.81          57.35          49.97          6.029          2.133         -153.7         -10.65         -123.5          73.35          24.83
     1.271              -40.73          19.81          57.33           50.0          6.031          2.129         -153.3         -10.58         -123.4          73.43          24.95
     1.316              -40.72          19.82          57.31          50.03          6.033          2.124         -152.8          -10.5         -123.4          73.52          25.09
     1.362               -40.7          19.82          57.29          50.07          6.036          2.118         -152.2         -10.41         -123.4          73.61          25.24
     1.407              -40.69          19.83          57.26          50.11          6.039          2.111         -151.6          -10.3         -123.4          73.73          25.42
     1.453              -40.67          19.83          57.23          50.16          6.043          2.104         -150.8         -10.18         -123.4          73.86          25.63
     1.498              -40.64          19.84          57.19          50.21          6.047          2.095         -149.9         -10.05         -123.4          74.01          25.87
     1.543              -40.62          19.85          57.15          50.28          6.052          2.085         -148.9         -9.883         -123.3          74.18          26.15
     1.589              -40.59          19.86           57.1          50.36          6.057          2.072         -147.7         -9.691         -123.3          74.39          26.48
     1.634              -40.55          19.87          57.04          50.45          6.064          2.058         -146.3         -9.464         -123.3          74.64          26.87
      1.68               -40.5          19.89          56.97          50.56          6.072          2.041         -144.5         -9.191         -123.2          74.93          27.34
     1.725              -40.45          19.91          56.89          50.69          6.082           2.02         -142.5         -8.861         -123.2          75.29          27.91
      1.77              -40.39          19.93          56.78          50.86          6.094          1.994         -139.9         -8.458         -123.1          75.73           28.6
     1.816               -40.3          19.95          56.66          51.06          6.109          1.962         -136.8         -7.961         -123.0          76.27          29.46
     1.861               -40.2          19.99           56.5          51.31          6.128          1.923         -132.9          -7.34         -122.9          76.94          30.53
     1.907              -40.08          20.03          56.29          51.62          6.151          1.873         -127.9         -6.559         -122.8          77.79          31.87
     1.952              -39.92          20.08          56.04          52.03          6.181           1.81         -121.7         -5.566         -122.6          78.87          33.58
     1.997              -39.71          20.15          55.71          52.54          6.219          1.729         -113.6         -4.294         -122.4          80.25          35.77
     2.043              -39.44          20.24          55.29           53.2          6.268          1.626         -103.3         -2.662         -122.1          82.03          38.58
     2.088               -39.1          20.35          54.75          54.05           6.33          1.493         -90.19        -0.5782         -121.7          84.29          42.17
     2.134              -38.68          20.49          54.08          55.11          6.409          1.326         -73.65          2.042         -121.3          87.14          46.69
     2.179              -38.16          20.67          53.25           56.4          6.505          1.123          -53.5          5.236         -120.7           90.6          52.19
